<?xml version="1.0" encoding="utf-8"?>
<!-- Generator: Adobe Illustrator 26.2.1, SVG Export Plug-In . SVG Version: 6.00 Build 0)  -->
<svg version="1.1" id="Layer_1" xmlns="http://www.w3.org/2000/svg" xmlns:xlink="http://www.w3.org/1999/xlink" x="0px" y="0px"
	 viewBox="0 0 521.8 193" style="enable-background:new 0 0 521.8 193;" xml:space="preserve">
<style type="text/css">
	.st0{fill:#3B3A39;}
	.st1{fill-rule:evenodd;clip-rule:evenodd;fill:#E2000F;}
	.st2{fill-rule:evenodd;clip-rule:evenodd;fill:#73A84D;}
	.st3{fill-rule:evenodd;clip-rule:evenodd;fill:#EE7C00;}
	.st4{fill-rule:evenodd;clip-rule:evenodd;fill:#0147AC;}
</style>
<path class="st0" d="M239.9,85.9h14.5V64.6c1.8,0,3.6,0,5.5-0.3l12.3,21.6h15.9v-2.2l-15.2-24.6C284,52,283.7,41.5,283.7,30H269
	c0,10.5,0.7,21.2-13.6,21.2h-1V30h-14.5L239.9,85.9L239.9,85.9z"/>
<path class="st0" d="M360.4,55.4l10-12.5l2.3,15.9L360.4,55.4z M352.7,66l21.2,5.9l1.3,7.6l13.5,3.7l0.6-2l-9.8-59.3l-5.9-1.6
	l-38.8,45.9l-0.6,2l13.5,3.7L352.7,66z"/>
<path class="st0" d="M250.6,152.9c0-20.1,28-20.1,28,0C278.7,173.1,250.6,173.1,250.6,152.9 M293.3,152.9c0-38.6-57.3-38.6-57.3,0
	C236,191.6,293.3,191.6,293.3,152.9z"/>
<path class="st0" d="M336,181.7h14.5v-21.3c1.8,0,3.6,0,5.5-0.3l12.3,21.6h15.9v-2.2L369,154.9c11.1-7.1,10.8-17.6,10.8-29.1h-14.7
	c0,10.5,0.7,21.2-13.6,21.2h-1v-21.2H336L336,181.7L336,181.7z"/>
<path class="st0" d="M22.1,66.6l6.3-14.7l6.5,14.7H22.1z M17.5,78.8h22l3.3,7h14v-2.1L31.6,29.2h-6.1L0.4,83.7v2.1h14L17.5,78.8z"/>
<path class="st0" d="M62.2,44h12.7c0-2.1,1.8-3.3,4.9-3.3c6.7,0,6.9,9.7-0.2,9.7h-3.8v11.7h3.9c9.6,0,9.6,12.7,0,12.7
	c-4.1,0-7-2.8-7-7.2H60.2c0,12.5,7.4,19.2,19.6,19.2c14.4,0,21.5-7.7,21.5-17.6c0-6.3-2.4-10.8-8.1-13.8c3.3-2.5,4.9-6.7,4.9-10.4
	c0-8.1-6.1-16.2-18.4-16.2C70.1,28.9,61.7,33.7,62.2,44"/>
<path class="st0" d="M126.8,73.1V62.2H137c7.8,0,7.9,10.9,0,10.9H126.8z M137.1,49.5h-10.3v-6.8h25.9V29.9h-40.1v55.9h24.6
	C163.8,85.8,163.8,49.5,137.1,49.5z"/>
<polygon class="st0" points="180.2,66.3 171.4,84.3 171.4,85.8 186.8,85.8 213.3,32.1 213.3,30 197.8,30 188.3,50.6 187.9,50.6 
	177.3,30 161.4,30 161.4,32.1 "/>
<path class="st0" d="M424.4,151.8c0-20.1,28-20.1,28,0C452.4,172.1,424.4,172.1,424.4,151.8 M467,151.8c0-38.6-57.3-38.6-57.3,0
	C409.7,190.5,467,190.5,467,151.8z"/>
<polygon class="st0" points="507.2,179.7 521.8,179.7 521.8,123.8 507.2,123.8 507.2,144.1 489.9,144.1 489.9,123.8 475.3,123.8 
	475.3,179.7 489.9,179.7 489.9,157.3 507.2,157.3 "/>
<path class="st1" d="M226.3,20.2h75.2v75.2h-75.2L226.3,20.2L226.3,20.2z M223.3,17.2h81.2v81.2h-81.2L223.3,17.2L223.3,17.2z"/>
<path class="st2" d="M226.3,114.8h75.2V190h-75.2L226.3,114.8L226.3,114.8z M223.3,111.8h81.2V193h-81.2L223.3,111.8L223.3,111.8z"
	/>
<path class="st3" d="M320.5,114.8h75.2V190h-75.2V114.8z M317.5,111.8h81.2V193h-81.2V111.8z"/>
<path class="st4" d="M343.2,3.7l72.6,19.5l-19.5,72.6l-72.6-19.5L343.2,3.7z M341,0l78.4,21.1l-21.1,78.4l-78.4-21.1L341,0z"/>
</svg>
