<svg width="120" height="120" viewBox="0 0 120 120" fill="none" xmlns="http://www.w3.org/2000/svg">
<g clip-path="url(#clip0_301_10)">
<mask id="mask0_301_10" style="mask-type:luminance" maskUnits="userSpaceOnUse" x="0" y="0" width="120" height="120">
<path d="M102.353 0H17.6471C7.90086 0 0 7.90086 0 17.6471V102.353C0 112.099 7.90086 120 17.6471 120H102.353C112.099 120 120 112.099 120 102.353V17.6471C120 7.90086 112.099 0 102.353 0Z" fill="white"/>
</mask>
<g mask="url(#mask0_301_10)">
<path d="M102.353 0H17.6471C7.90086 0 0 7.90086 0 17.6471V102.353C0 112.099 7.90086 120 17.6471 120H102.353C112.099 120 120 112.099 120 102.353V17.6471C120 7.90086 112.099 0 102.353 0Z" fill="white"/>
<path d="M51.1765 65.1762L62.9412 50.4704L65.6471 69.1762L51.1765 65.1762ZM42.1176 77.6468L67.0588 84.588L68.5882 93.5292L84.4706 97.8821L85.1765 95.5292L73.6471 25.7645L66.7059 23.8821L21.0588 77.8821L20.3529 80.2351L36.2353 84.588L42.1176 77.6468Z" fill="#3B3A39"/>
<path fill-rule="evenodd" clip-rule="evenodd" d="M30.9412 4.35294L116.353 27.2941L93.4118 112.706L8 89.7647L30.9412 4.35294ZM28.3529 0L120.588 24.8235L95.7647 117.059L3.52942 92.2353L28.3529 0Z" fill="#0147AC"/>
</g>
</g>
<defs>
<clipPath id="clip0_301_10">
<rect width="120" height="120" fill="white"/>
</clipPath>
</defs>
</svg>
